# xmcd
#
# Track frame offsets:
#	150
#	14105
#	32270
#	46563
#	61033
#	71610
#	85033
#	103030
#	117275
#	128638
#
# Disc length: 1942 seconds
#
# Revision: 1
# Processed by: cddbd v1.4PL0 Copyright (c) Steve Scherf et al.
# Submitted via: audiograbber 1.81.03
#
DISCID=7307940a
DTITLE=Inger Nordströms - Cimarron County
DYEAR=1900
DGENRE=Country
TTITLE0=I Saw You Look At Her
TTITLE1=I hOpe You Turn Me Down
TTITLE2=Down To My Last Goodbye
TTITLE3=Clouds on A Summer Sky
TTITLE4=Don`t You Worry `Bout A Thing
TTITLE5=Tryin` To Start A Fire
TTITLE6=Who`ll Be The First To Fall
TTITLE7=Cimarron County
TTITLE8=Falling Fast
TTITLE9=I Don`t Love You Is A Life
EXTD=
EXTT0=
EXTT1=
EXTT2=
EXTT3=
EXTT4=
EXTT5=
EXTT6=
EXTT7=
EXTT8=
EXTT9=
PLAYORDER=
